<svg xmlns="http://www.w3.org/2000/svg" xmlns:xlink="http://www.w3.org/1999/xlink" version="1.1" id="Your_Icon" x="0px" y="0px" width="100px" height="100px" viewBox="0 0 100 100" enable-background="new 0 0 100 100" xml:space="preserve">
<g>
	<g>
		<g>
		</g>
	</g>
	<g>
	</g>
</g>
<path fill="#000000" d="M78.322,91.836l-1.126-0.854c-1.321-0.882-7.381-5.822-13.411-11.873c-0.116-0.116-0.268-0.19-0.427-0.21  c-3.37-0.413-6.574-1.674-9.265-3.646c-0.229-0.167-0.549-0.185-0.789-0.048c-2.43,1.367-5.114,2.06-7.982,2.06  c-4.555,0-8.882-1.877-11.872-5.15c-0.217-0.238-0.591-0.307-0.874-0.158c-2.316,1.189-5.044,2.405-7.721,2.405  c-4.287,0-6.928-0.752-10.346-5.023c-0.081-0.101-0.117-0.213-0.139-0.311c-7.997-2.502-8.671-7.631-8.671-12.675  c0-1.854,0.389-3.748,1.125-5.478c0.079-0.186,0.079-0.389,0-0.574c-0.736-1.73-1.125-3.625-1.125-5.479  c0-6.254,4.196-11.829,10.442-13.873c0.228-0.075,0.405-0.257,0.473-0.486c1.876-6.294,8.059-10.689,15.035-10.689  c0.651,0,1.312,0.04,1.964,0.117c0.277,0.013,0.512-0.092,0.652-0.263c2.949-3.588,7.575-5.731,12.374-5.731  c4.181,0,8.101,1.527,11.037,4.301c0.194,0.182,0.491,0.244,0.729,0.164c2.387-0.783,4.887-1.18,7.433-1.18  c10.581,0,19.619,6.74,21.979,16.39c0.046,0.187,0.161,0.346,0.324,0.448c4.38,2.733,6.995,7.314,6.995,12.256  c0,3.484-1.326,6.869-3.733,9.532c-0.165,0.183-0.227,0.436-0.165,0.674c0.294,1.138,0.443,2.314,0.443,3.496  c0,5.3-3.054,10.212-7.97,12.819c-0.125,0.066-0.229,0.168-0.297,0.292c-1.137,2.062-2.976,3.757-5.177,4.775  c-0.269,0.125-0.436,0.397-0.425,0.693L78.322,91.836z M53.661,74.135c0.364,0,0.713,0.114,1.009,0.33  c2.558,1.874,5.602,3.071,8.806,3.465c0.374,0.045,0.729,0.218,1,0.489c5.464,5.481,10.924,10.027,12.793,11.416L76.84,78.594  c-0.026-0.689,0.361-1.324,0.988-1.616c2.016-0.932,3.696-2.48,4.732-4.36c0.161-0.291,0.4-0.527,0.694-0.684  c4.597-2.438,7.451-7.02,7.451-11.957c0-1.1-0.139-2.193-0.412-3.252c-0.144-0.557,0-1.145,0.386-1.571  c2.245-2.484,3.481-5.638,3.481-8.879c0-4.603-2.443-8.875-6.536-11.428c-0.381-0.238-0.648-0.609-0.755-1.045  c-2.253-9.211-10.9-15.645-21.03-15.645c-2.442,0-4.84,0.38-7.125,1.13c-0.57,0.188-1.253,0.046-1.706-0.38  c-2.754-2.602-6.436-4.034-10.367-4.034c-4.51,0-8.854,2.009-11.621,5.375c-0.371,0.449-0.943,0.684-1.523,0.611  c-0.612-0.073-1.234-0.109-1.847-0.109c-6.548,0-12.346,4.108-14.1,9.991c-0.158,0.535-0.571,0.959-1.104,1.135  c-5.844,1.913-9.77,7.115-9.77,12.946c0,1.725,0.362,3.486,1.046,5.096c0.182,0.424,0.183,0.913,0.001,1.339  c-0.686,1.61-1.047,3.373-1.047,5.096c0,4.919,0.626,9.524,8.193,11.808c0.346,0.1,0.414,0.447,0.442,0.597  c3.148,3.956,5.493,4.628,9.544,4.628c2.469,0,5.062-1.161,7.273-2.297c0.659-0.34,1.539-0.185,2.042,0.369  c2.804,3.07,6.869,4.831,11.15,4.831c2.698,0,5.222-0.65,7.5-1.933C53.075,74.212,53.366,74.135,53.661,74.135z M75.47,86.198  l-0.962-1.153c-1.136-1.362-2.803-2.789-4.414-4.168c-0.942-0.806-1.832-1.567-2.62-2.314l-0.267-0.254  c-0.604-0.573-1.279-1.215-2.057-1.965l-0.254-0.245l-0.352-0.025c-2.52-0.186-5.006-0.947-7.191-2.201  c-0.024-0.014-1.969-1.177-2.82-2.063c-2.413,1.588-6.425,2.527-9.091,2.527c-4.653,0-8.535-1.712-10.652-4.696  c-0.056-0.062-0.259-0.24-0.498-0.453c-0.517-0.462-0.846-0.767-1.054-0.992l-1.841,0.926c-0.645,0.323-1.175,0.62-1.65,0.886  c-1.254,0.702-2.16,1.21-3.728,1.422c-4.415,0.602-8.22-1.321-9.82-4.904l-0.17-0.115c-5.827-1.887-7.154-3.674-7.409-10.038  c-0.07-1.738,0.388-3.527,1.363-5.318l0.255-0.468l-0.253-0.465c-0.901-1.656-1.359-3.439-1.359-5.299  c0-5.474,4.006-10.182,9.742-11.449l0.639-0.141l0.113-0.646c0.996-5.728,6.266-9.885,12.53-9.885c1.015,0,2.032,0.115,3.023,0.34  l0.668,0.151l0.371-0.579c2.276-3.569,6.464-5.787,10.929-5.787c2.862,0,5.563,0.865,7.81,2.501c0.024,0.018,2.04,1.542,2.544,2.399  c2.447-0.931,6.172-1.618,8.842-1.618c9.62,0,17.761,6.391,19.355,15.196l0.086,0.471l0.425,0.221  c4.011,2.086,6.502,6.025,6.502,10.278c0,2.297-0.966,4.67-2.793,6.863l-1.745,1.802c0.042,0.126,0.087,0.28,0.14,0.473  c0.029,0.105,0.053,0.197,0.07,0.243l0.101,0.255c0.518,1.301,0.78,2.669,0.78,4.066c-0.002,4.522-2.725,8.573-7.104,10.572  l-0.337,0.154l-0.151,0.342c-1.087,2.475-3.418,4.282-6.234,4.833l-0.145,0.048L75.47,86.198z M55.109,71.024  c0.322,0.412,2.226,1.712,2.73,2.002c2.059,1.181,4.402,1.898,6.776,2.074l0.702,0.051l0.509,0.489  c0.776,0.748,1.45,1.389,2.052,1.96l0.267,0.254c0.77,0.729,1.65,1.483,2.583,2.281c1.24,1.062,2.514,2.15,3.574,3.234l-0.542-8.137  l0.925-0.299c2.56-0.504,4.626-2.1,5.585-4.282l0.301-0.684l0.676-0.309c4.028-1.838,6.531-5.549,6.533-9.684  c0-1.273-0.239-2.521-0.711-3.707l-0.1-0.252c-0.021-0.052-0.062-0.187-0.105-0.346c-0.041-0.151-0.128-0.466-0.172-0.547  l-0.343-0.34l0.384-0.286l1.952-2.014c1.654-1.988,2.542-4.145,2.542-6.211c0-3.888-2.29-7.495-5.977-9.412l-0.849-0.442  l-0.172-0.942c-1.511-8.34-9.246-14.394-18.395-14.394c-2.678,0-6.455,0.717-8.786,1.668l-0.3,0.122l-0.606-0.603l-0.006-0.11  c-0.259-0.392-1.842-1.738-2.264-2.047c-2.077-1.513-4.58-2.313-7.234-2.313c-4.135,0-8.007,2.044-10.106,5.335l-0.74,1.157  l-1.337-0.302c-0.921-0.209-1.865-0.315-2.808-0.315c-5.789,0-10.653,3.817-11.568,9.076l-0.226,1.29l-1.276,0.283  c-5.285,1.167-8.976,5.484-8.976,10.496c0,1.695,0.417,3.321,1.24,4.833l0.507,0.933l-0.51,0.934  c-0.889,1.634-1.308,3.253-1.244,4.812c0.25,6.229,1.592,7.484,6.797,9.174l0.408,0.232l0.268,0.338  c1.402,3.209,4.821,4.922,8.82,4.386c1.383-0.188,2.178-0.633,3.381-1.307c0.486-0.272,1.029-0.576,1.689-0.907l2.926-1.47v0.676  c0.176,0.219,0.762,0.742,1.056,1.005c0.423,0.378,0.566,0.509,0.642,0.615c1.933,2.725,5.526,4.286,9.858,4.286  c2.598,0,6.737-0.995,8.895-2.604l0.713-0.53L55.109,71.024z"/>
<g>
	<path fill="#000000" d="M42.557,28.112c0.557,0.031,0.954,0.261,1.12,0.65c0.164,0.385,0.065,0.85-0.257,1.215   c-0.511,0.579-0.653,1.33-0.369,1.959c0.287,0.636,0.958,1.016,1.796,1.016h3.707c0.149,0,0.149,0.087,0.149,0.134v3.414   c-0.511-0.35-1.093-0.539-1.679-0.539c-0.383,0-0.758,0.079-1.113,0.235c-1.07,0.472-1.709,1.534-1.709,2.869   c0,1.32,0.631,2.386,1.688,2.849c0.356,0.157,0.727,0.236,1.104,0.236c0.604,0,1.188-0.202,1.71-0.587v3.462   c0,0.099-0.056,0.202-0.149,0.202h-3.707c-0.914,0-1.687,0.454-2.016,1.184c-0.282,0.623-0.172,1.333,0.271,1.834   c0.195,0.237,0.32,0.709,0.196,0.987c-0.084,0.189-0.322,0.295-0.708,0.316c-0.171-0.01-0.437-0.047-0.512-0.184   c-0.126-0.229,0.004-0.81,0.204-1.19c0.377-0.476,0.451-1.088,0.195-1.654c-0.349-0.773-1.238-1.292-2.211-1.292h-3.652   c-0.098,0-0.187-0.096-0.187-0.202v-3.509c0.543,0.411,1.185,0.634,1.836,0.634c0.39,0,0.767-0.079,1.123-0.235   c1.098-0.484,1.78-1.573,1.78-2.869c0-1.277-0.678-2.369-1.771-2.849c-0.356-0.156-0.735-0.236-1.126-0.236   c-0.656,0-1.3,0.227-1.842,0.643v-3.519c0-0.13,0.168-0.134,0.187-0.134h3.652c0.837,0,1.509-0.38,1.796-1.017   c0.285-0.63,0.144-1.381-0.368-1.96c-0.323-0.366-0.421-0.831-0.258-1.215C41.602,28.373,42,28.143,42.557,28.112 M42.557,27.379   c-1.896,0.078-2.453,1.901-1.411,3.081c0.632,0.716,0.356,1.761-0.879,1.761h-3.652c-0.505,0-0.919,0.361-0.919,0.866v3.756   c0,0.219,0.098,0.591,0.31,0.689c0.055,0.025,0.114,0.038,0.175,0.038c0.173,0,0.365-0.096,0.53-0.246   c0.454-0.413,1.009-0.629,1.56-0.629c0.284,0,0.566,0.057,0.832,0.174c0.787,0.346,1.333,1.162,1.333,2.179v0.018v0.012   c0,1.014-0.553,1.821-1.343,2.169c-0.265,0.117-0.546,0.173-0.827,0.173c-0.559,0-1.122-0.223-1.58-0.64   c-0.163-0.149-0.346-0.24-0.512-0.24c-0.059,0-0.116,0.011-0.168,0.036c-0.208,0.098-0.308,0.452-0.308,0.671v3.78   c0,0.505,0.414,0.934,0.919,0.934h3.652c1.236,0,2.04,1.083,1.408,1.801c-0.325,0.569-0.98,2.442,0.916,2.521   c1.894-0.079,1.647-1.81,1.078-2.501c-0.632-0.717-0.056-1.821,1.18-1.821h3.707c0.505,0,0.881-0.428,0.881-0.934v-3.756   c0-0.22-0.05-0.591-0.261-0.689c-0.055-0.025-0.112-0.037-0.17-0.037c-0.167,0-0.345,0.095-0.51,0.245   c-0.454,0.414-0.974,0.629-1.5,0.629c-0.271,0-0.543-0.057-0.809-0.174c-0.788-0.346-1.25-1.161-1.25-2.179v-0.018v-0.011   c0-1.015,0.482-1.821,1.272-2.169c0.265-0.117,0.542-0.173,0.818-0.173c0.548,0,1.095,0.222,1.554,0.64   c0.163,0.148,0.311,0.24,0.459,0.24c0.052,0,0.104-0.011,0.157-0.036c0.208-0.098,0.241-0.452,0.241-0.671v-3.781   c0-0.505-0.375-0.866-0.881-0.866h-3.707c-1.236,0-1.512-1.042-0.879-1.759C45.009,29.283,44.451,27.458,42.557,27.379   L42.557,27.379z"/>
	<path fill="#000000" d="M70.318,47.792c0.251,0,0.517,0.081,0.788,0.241c0.464,0.346,0.675,0.775,0.594,1.211   c-0.08,0.43-0.434,0.778-0.923,0.909c-0.728,0.194-1.246,0.726-1.355,1.387c-0.11,0.67,0.23,1.34,0.912,1.794l3.087,2.052   c0.164,0.109,0.088,0.225,0.062,0.263l-1.942,2.921c-0.365-0.984-1.163-1.683-2.152-1.855c-0.152-0.027-0.309-0.04-0.463-0.04   c-0.971,0-1.876,0.523-2.501,1.461c-0.719,1.081-0.783,2.298-0.172,3.254c0.507,0.792,1.356,1.246,2.332,1.246   c0.086,0,0.173-0.003,0.261-0.01l-1.973,2.968c-0.062,0.093-0.148,0.126-0.209,0.126c-0.032,0-0.062-0.009-0.093-0.029   l-3.088-2.052c-0.39-0.26-0.785-0.392-1.175-0.392c-0.458,0-0.873,0.187-1.169,0.524c-0.332,0.38-0.479,0.919-0.402,1.481   c0.054,0.389-0.043,0.757-0.265,1.011c-0.133,0.152-0.369,0.333-0.745,0.333c-0.254,0-0.521-0.082-0.798-0.245   c-0.46-0.344-0.678-0.782-0.599-1.208c0.078-0.421,0.429-0.763,0.914-0.893c0.723-0.192,1.237-0.715,1.345-1.363   c0.11-0.672-0.226-1.323-0.922-1.785l-3.043-2.025c-0.06-0.04-0.083-0.1-0.092-0.143c-0.014-0.067,0-0.138,0.036-0.192l1.999-3.007   c0.337,1.079,1.179,1.849,2.234,2.03c0.162,0.028,0.328,0.043,0.493,0.043c0.991,0,1.93-0.522,2.499-1.378l0.018-0.022l0.015-0.022   c0.694-1.048,0.733-2.312,0.103-3.3c-0.519-0.808-1.428-1.29-2.433-1.29c-0.106,0-0.213,0.005-0.32,0.016l2.004-3.014   c0.021-0.032,0.059-0.075,0.139-0.075c0.051,0,0.106,0.019,0.158,0.053l3.041,2.021c0.385,0.256,0.777,0.386,1.166,0.386   c0.465,0,0.887-0.19,1.188-0.536c0.337-0.386,0.485-0.929,0.408-1.49c-0.053-0.389,0.047-0.762,0.273-1.021   C69.748,47.914,70.019,47.792,70.318,47.792L70.318,47.792 M70.318,47.108c-1.087,0-1.873,0.972-1.714,2.14   c0.094,0.685-0.303,1.25-0.92,1.25c-0.235,0-0.503-0.082-0.787-0.271l-3.042-2.021c-0.167-0.112-0.354-0.167-0.536-0.167   c-0.275,0-0.54,0.127-0.708,0.381l-2.079,3.126c-0.123,0.183-0.245,0.547-0.124,0.745c0.096,0.158,0.293,0.231,0.52,0.231   c0.06,0,0.12-0.005,0.182-0.015c0.131-0.02,0.26-0.029,0.388-0.029c0.769,0,1.46,0.356,1.857,0.976   c0.463,0.725,0.466,1.704-0.097,2.553l-0.011,0.014l-0.007,0.01c-0.479,0.721-1.212,1.095-1.944,1.095   c-0.125,0-0.25-0.012-0.374-0.033c-0.853-0.146-1.522-0.814-1.746-1.72c-0.071-0.29-0.234-0.513-0.454-0.547   c-0.015-0.002-0.029-0.003-0.045-0.003c-0.218,0-0.469,0.22-0.583,0.392L56,58.363c-0.279,0.421-0.173,1.005,0.249,1.283   l3.04,2.023c1.03,0.685,0.704,1.674-0.22,1.92c-1.52,0.405-2.054,2.215-0.519,3.33c0.411,0.249,0.812,0.359,1.177,0.359   c1.075,0,1.847-0.955,1.687-2.12c-0.092-0.681,0.29-1.229,0.895-1.229c0.236,0,0.507,0.084,0.796,0.276l3.089,2.053   c0.146,0.098,0.31,0.144,0.471,0.144c0.301,0,0.597-0.158,0.778-0.432l2.079-3.129c0.122-0.184,0.286-0.521,0.164-0.719   c-0.094-0.153-0.274-0.22-0.491-0.22c-0.061,0-0.125,0.006-0.19,0.016c-0.143,0.022-0.282,0.033-0.419,0.033   c-0.739,0-1.367-0.322-1.757-0.932c-0.463-0.725-0.398-1.658,0.166-2.507l0.011-0.016l0.006-0.009   c0.485-0.729,1.185-1.133,1.915-1.133c0.115,0,0.23,0.01,0.346,0.03c0.852,0.149,1.49,0.798,1.716,1.701   c0.073,0.29,0.181,0.479,0.4,0.511c0.014,0.002,0.027,0.003,0.04,0.003c0.212,0,0.417-0.256,0.532-0.428l2.093-3.147   c0.28-0.422,0.167-0.929-0.253-1.209l-3.088-2.053c-1.028-0.685-0.682-1.705,0.241-1.951c1.521-0.406,2.066-2.234,0.532-3.35   C71.079,47.217,70.682,47.108,70.318,47.108L70.318,47.108z"/>
	<path fill="#000000" d="M62.903,32.923c0.099,0,0.2,0.056,0.2,0.148v3.708c0,1.333,0.865,1.939,1.669,1.939   c0.45,0,0.903-0.181,1.277-0.511c0.245-0.216,0.536-0.335,0.82-0.335c0.578,0,0.975,0.469,1.015,1.197   c-0.04,0.729-0.439,1.197-1.022,1.197c-0.285,0-0.577-0.119-0.822-0.335c-0.374-0.33-0.826-0.511-1.275-0.511   c-0.8,0-1.661,0.607-1.661,1.939v3.652c0,0.098-0.096,0.187-0.2,0.187h-3.51c0.67-0.882,0.825-1.991,0.397-2.958   c-0.481-1.098-1.568-1.78-2.867-1.78c-1.277,0-2.369,0.678-2.849,1.768c-0.431,0.976-0.272,2.091,0.406,2.97h-3.52   c-0.129,0-0.133-0.167-0.133-0.187V41.36c0-1.382-0.945-2.208-1.858-2.208c-0.379,0-0.74,0.131-1.049,0.381   c-0.16,0.085-0.488,0.194-0.783,0.194c-0.287,0-0.51-0.047-0.542-0.63c0.037-0.682,0.336-0.686,0.537-0.686   c0.001,0,0.002,0,0.003,0c0.292,0,0.6,0.131,0.702,0.218c0.312,0.275,0.686,0.421,1.082,0.421c1.052,0,1.908-1.02,1.908-2.272   v-3.708c0-0.148,0.087-0.148,0.133-0.148h3.416c-0.582,0.851-0.703,1.885-0.305,2.792c0.471,1.07,1.532,1.709,2.869,1.709   c1.32,0,2.385-0.631,2.849-1.688c0.409-0.93,0.276-1.958-0.351-2.813H62.903 M62.903,32.191h-3.756c-0.22,0-0.59,0.05-0.689,0.261   c-0.097,0.21,0.004,0.458,0.209,0.681c0.625,0.687,0.799,1.526,0.454,2.309c-0.346,0.788-1.161,1.25-2.179,1.25h-0.018h-0.012   c-1.015,0-1.822-0.482-2.17-1.272c-0.348-0.791-0.16-1.682,0.468-2.372c0.201-0.221,0.297-0.415,0.204-0.616   c-0.098-0.207-0.451-0.241-0.672-0.241h-3.781c-0.505,0-0.865,0.375-0.865,0.88v3.708c0,0.918-0.583,1.541-1.176,1.541   c-0.206,0-0.413-0.075-0.597-0.238c-0.245-0.209-0.719-0.401-1.187-0.401c-0.62,0-1.229,0.337-1.273,1.418   c0.044,1.063,0.654,1.362,1.274,1.362c0.484,0,0.974-0.183,1.206-0.325c0.194-0.171,0.412-0.251,0.626-0.251   c0.576,0,1.126,0.574,1.126,1.476v3.652c0,0.505,0.36,0.918,0.865,0.918h3.756c0.222,0,0.592-0.099,0.69-0.311   c0.097-0.209-0.005-0.48-0.208-0.704c-0.626-0.686-0.801-1.609-0.455-2.392c0.346-0.786,1.161-1.332,2.179-1.332h0.017h0.013   c1.015,0,1.821,0.552,2.168,1.342c0.35,0.792,0.162,1.718-0.465,2.406c-0.203,0.221-0.299,0.48-0.205,0.683   c0.099,0.207,0.451,0.307,0.671,0.307h3.781c0.506,0,0.933-0.414,0.933-0.918V41.36c0-0.81,0.431-1.208,0.929-1.208   c0.263,0,0.544,0.11,0.791,0.328c0.396,0.349,0.86,0.518,1.307,0.518c0.888,0,1.703-0.668,1.756-1.929   c-0.053-1.26-0.863-1.929-1.748-1.929c-0.445,0-0.909,0.169-1.305,0.518c-0.247,0.218-0.529,0.328-0.793,0.328   c-0.502,0-0.937-0.397-0.937-1.208v-3.708C63.836,32.567,63.409,32.191,62.903,32.191L62.903,32.191z"/>
	<path fill="#000000" d="M48.613,47.336c0.127,0,0.134,0.154,0.134,0.185v3.653c0,1.332,0.876,1.938,1.691,1.938   c0.456,0,0.912-0.181,1.286-0.511c0.245-0.216,0.539-0.335,0.827-0.335c0.45,0,0.988,0.314,1.036,1.196   c-0.048,0.884-0.587,1.198-1.038,1.198c-0.289,0-0.583-0.118-0.828-0.335c-0.373-0.33-0.83-0.512-1.285-0.512   c-0.813,0-1.689,0.607-1.689,1.939v3.708c0,0.148-0.087,0.148-0.134,0.148h-3.415c0.582-0.85,0.703-1.885,0.304-2.792   c-0.472-1.07-1.533-1.709-2.87-1.709c-1.318,0-2.384,0.632-2.85,1.689c-0.41,0.934-0.274,1.962,0.353,2.812h-3.464   c-0.099,0-0.201-0.056-0.201-0.148v-3.708c0-1.332-0.865-1.939-1.668-1.939c-0.45,0-0.904,0.182-1.278,0.512   c-0.245,0.216-0.536,0.335-0.819,0.335c-0.579,0-0.975-0.469-1.016-1.198c0.041-0.728,0.439-1.196,1.022-1.196   c0.286,0,0.578,0.119,0.823,0.335c0.374,0.33,0.826,0.511,1.274,0.511c0.8,0,1.662-0.606,1.662-1.938v-3.653   c0-0.097,0.096-0.185,0.201-0.185h3.51c-0.669,0.883-0.825,1.992-0.398,2.959c0.483,1.097,1.571,1.779,2.869,1.779   c1.277,0,2.369-0.679,2.848-1.769c0.43-0.975,0.272-2.089-0.406-2.969H48.613 M48.613,46.604h-3.756   c-0.22,0-0.59,0.098-0.689,0.309c-0.097,0.209,0.004,0.482,0.208,0.706c0.625,0.686,0.799,1.609,0.454,2.391   c-0.346,0.787-1.161,1.333-2.178,1.333h-0.018h-0.012c-1.014,0-1.822-0.553-2.169-1.342c-0.349-0.792-0.161-1.718,0.467-2.408   c0.201-0.22,0.297-0.479,0.204-0.681c-0.098-0.208-0.452-0.307-0.672-0.307h-3.78c-0.505,0-0.933,0.412-0.933,0.917v3.653   c0,0.81-0.431,1.207-0.93,1.207c-0.262,0-0.543-0.11-0.791-0.328c-0.395-0.349-0.86-0.519-1.307-0.519   c-0.888,0-1.703,0.669-1.755,1.929c0.053,1.261,0.864,1.931,1.749,1.931c0.445,0,0.909-0.17,1.304-0.519   c0.247-0.218,0.53-0.328,0.793-0.328c0.502,0,0.937,0.398,0.937,1.207v3.708c0,0.506,0.427,0.881,0.933,0.881h3.756   c0.22,0,0.592-0.052,0.69-0.261c0.097-0.211-0.005-0.458-0.208-0.683c-0.625-0.684-0.799-1.524-0.456-2.307   c0.347-0.787,1.162-1.251,2.179-1.251h0.018h0.012c1.015,0,1.821,0.48,2.17,1.271c0.348,0.792,0.161,1.684-0.467,2.372   c-0.202,0.222-0.298,0.413-0.204,0.616c0.097,0.207,0.451,0.241,0.671,0.241h3.781c0.505,0,0.866-0.375,0.866-0.881v-3.708   c0-0.809,0.448-1.207,0.958-1.207c0.269,0,0.554,0.11,0.801,0.328c0.396,0.349,0.862,0.519,1.312,0.519   c0.895,0,1.719-0.669,1.771-1.931c-0.053-1.26-0.876-1.929-1.77-1.929c-0.449,0-0.916,0.17-1.312,0.519   c-0.247,0.218-0.533,0.328-0.802,0.328c-0.511,0-0.959-0.397-0.959-1.207v-3.653C49.479,47.016,49.119,46.604,48.613,46.604   L48.613,46.604z"/>
</g>
<g>
	<defs>
		<path id="SVGID_1_" d="M67.011,58.489c0.562-0.844,1.409-1.251,2.261-1.103c0.852,0.149,1.49,0.798,1.716,1.701    c0.073,0.29,0.181,0.479,0.4,0.511c0.226,0.036,0.45-0.242,0.572-0.425l2.093-3.147c0.28-0.422,0.167-0.929-0.253-1.209    l-3.088-2.053c-1.028-0.685-0.682-1.705,0.241-1.951c1.521-0.406,2.066-2.234,0.532-3.35c-1.621-0.983-3.094,0.225-2.881,1.785    c0.13,0.947-0.678,1.665-1.707,0.979l-3.042-2.021c-0.42-0.28-0.965-0.208-1.244,0.213l-2.079,3.126    c-0.123,0.183-0.245,0.547-0.124,0.745c0.12,0.199,0.402,0.264,0.701,0.217c0.92-0.141,1.782,0.225,2.245,0.946    c0.463,0.725,0.466,1.704-0.097,2.553l-0.011,0.014l-0.007,0.01c-0.562,0.844-1.469,1.212-2.318,1.062    c-0.853-0.146-1.522-0.814-1.746-1.72c-0.071-0.29-0.234-0.513-0.454-0.547c-0.227-0.034-0.506,0.205-0.628,0.389L56,58.363    c-0.279,0.421-0.173,1.005,0.249,1.283l3.04,2.023c1.03,0.685,0.704,1.674-0.22,1.92c-1.52,0.405-2.054,2.215-0.519,3.33    c1.621,0.983,3.078-0.2,2.863-1.761c-0.128-0.947,0.661-1.639,1.69-0.953l3.089,2.053c0.42,0.28,0.97,0.133,1.249-0.288    l2.079-3.129c0.122-0.184,0.286-0.521,0.164-0.719c-0.12-0.196-0.383-0.25-0.682-0.204c-0.919,0.142-1.714-0.177-2.176-0.898    c-0.463-0.725-0.398-1.658,0.166-2.507l0.011-0.016L67.011,58.489z"/>
	</defs>
	<clipPath id="SVGID_2_">
		<use xlink:href="#SVGID_1_" overflow="visible"/>
	</clipPath>
	<g clip-path="url(#SVGID_2_)">
		
			<rect x="65.802" y="37.046" transform="matrix(0.1761 0.9844 -0.9844 0.1761 102.6937 -24.6065)" fill="#000000" width="0.488" height="23.992"/>
		
			<rect x="65.923" y="38.632" transform="matrix(0.1761 0.9844 -0.9844 0.1761 104.3558 -23.4188)" fill="#000000" width="0.488" height="23.994"/>
		
			<rect x="66.045" y="40.219" transform="matrix(0.1761 0.9844 -0.9844 0.1761 106.0173 -22.2316)" fill="#000000" width="0.488" height="23.992"/>
		
			<rect x="66.167" y="41.805" transform="matrix(0.1761 0.9844 -0.9844 0.1761 107.6791 -21.0451)" fill="#000000" width="0.488" height="23.992"/>
		
			<rect x="66.289" y="43.391" transform="matrix(0.1761 0.9844 -0.9844 0.1761 109.3408 -19.8585)" fill="#000000" width="0.488" height="23.992"/>
		
			<rect x="66.411" y="44.978" transform="matrix(0.1761 0.9844 -0.9844 0.1761 111.0035 -18.6712)" fill="#000000" width="0.488" height="23.992"/>
		
			<rect x="66.534" y="46.563" transform="matrix(0.1761 0.9844 -0.9844 0.1761 112.6657 -17.4851)" fill="#000000" width="0.488" height="23.993"/>
		
			<rect x="66.655" y="48.149" transform="matrix(0.1761 0.9844 -0.9844 0.1761 114.327 -16.2981)" fill="#000000" width="0.488" height="23.994"/>
		
			<rect x="66.777" y="49.736" transform="matrix(0.1761 0.9844 -0.9844 0.1761 115.9892 -15.1111)" fill="#000000" width="0.488" height="23.993"/>
		
			<rect x="66.9" y="51.322" transform="matrix(0.1761 0.9844 -0.9844 0.1761 117.6505 -13.925)" fill="#000000" width="0.488" height="23.992"/>
		
			<rect x="67.022" y="52.909" transform="matrix(0.1761 0.9844 -0.9844 0.1761 119.3132 -12.7377)" fill="#000000" width="0.488" height="23.992"/>
		
			<rect x="67.144" y="54.495" transform="matrix(0.1761 0.9844 -0.9844 0.1761 120.9754 -11.5507)" fill="#000000" width="0.488" height="23.993"/>
	</g>
</g>
</svg>