<svg xmlns="http://www.w3.org/2000/svg" xmlns:xlink="http://www.w3.org/1999/xlink" version="1.1" id="Layer_1" x="0px" y="0px" width="90px" height="90px" viewBox="0 0 90 90" enable-background="new 0 0 90 90" xml:space="preserve">
<g>
	<path fill-rule="evenodd" clip-rule="evenodd" fill="#000000" d="M7.228,25.766c0-0.589-0.011-1.085,0.002-1.58   c0.063-2.36,0.523-2.818,2.949-2.849c1.921-0.025,3.842-0.018,5.764-0.003c2.775,0.021,3.105,0.365,3.203,3.231   c0.015,0.412,0.07,0.822,0.116,1.333c0.788,0,1.464,0,2.327,0c0.345-3.899,0.71-7.706,1.011-11.518   c0.229-2.91,0.732-3.431,3.643-3.431c12.523-0.004,25.047-0.004,37.571,0c2.913,0,3.426,0.521,3.647,3.427   c0.253,3.332,0.625,6.655,0.822,9.989c0.077,1.303,0.573,1.698,1.824,1.681c3.913-0.055,7.827-0.037,11.739-0.013   c3.852,0.024,5.252,1.457,5.255,5.33c0.004,14.16,0.004,28.321-0.001,42.481c-0.002,3.924-1.453,5.376-5.446,5.377   c-24.407,0.01-48.814,0.01-73.221,0c-4.08-0.001-5.474-1.44-5.475-5.559c-0.001-13.947,0-27.893,0-41.84   C2.958,27.968,3.543,27.111,7.228,25.766z M45.324,72.56c11.416-0.336,20.567-9.662,20.324-20.712   c-0.255-11.654-9.716-20.762-21.236-20.444C33.301,31.71,24.178,41.207,24.41,52.226C24.65,63.643,34.16,72.89,45.324,72.56z    M45.031,21.48c3.341,0,6.682-0.011,10.023,0.005c1.688,0.009,3.058-0.477,3.073-2.417c0.017-1.99-1.416-2.387-3.078-2.385   c-6.682,0.007-13.364,0.009-20.046-0.002c-1.674-0.002-3.099,0.43-3.081,2.393c0.017,1.917,1.393,2.423,3.086,2.413   C38.348,21.467,41.69,21.48,45.031,21.48z M18.338,38.375c-0.013-2.814-2.365-5.179-5.138-5.167   c-2.785,0.014-5.101,2.378-5.096,5.204c0.005,2.871,2.264,5.118,5.132,5.106C16.104,43.507,18.351,41.243,18.338,38.375z"/>
	<path fill-rule="evenodd" clip-rule="evenodd" fill="#000000" d="M44.803,66.172c-7.844-0.228-14.143-6.656-14.017-14.303   c0.131-7.941,6.785-14.322,14.677-14.078c7.623,0.236,13.926,6.77,13.806,14.312C59.146,59.944,52.514,66.396,44.803,66.172z"/>
</g>
</svg>