<svg xmlns="http://www.w3.org/2000/svg" xmlns:xlink="http://www.w3.org/1999/xlink" version="1.1" x="0px" y="0px" width="100px" height="100px" viewBox="-346 256 100 100" enable-background="new -346 256 100 100" xml:space="preserve">
<g id="Layer_3">
</g>
<g id="Layer_1">
	<path d="M-289.278,315.188c0.153,0.734,0.143,1.507-0.075,2.245c-0.183,0.694-0.558,1.346-1.067,1.884   c-1.73,1.749-4.558,1.795-6.324,0.089l-9.644-9.452l-1.692,2.075l9.648,9.449c2.392,2.326,7.592,2.179,9.944-0.209   c0.814-0.829,1.964-2.721,2.206-3.813l21.564,0.019c2.488,0,4.953,2.32,4.953,4.8c0,2.502-1.635,5.563-5.057,5.563h-35.472   c-1.6-0.048-3.601-0.867-4.999-2.052l-20.215-15.42l-20.587,0.046l0.008-17.37h31.859c0,0,2.35,0.054,3.969,0.991   c1.49,0.876,2.822,2.146,2.822,2.146l16.91,16.845C-289.912,313.611-289.484,314.352-289.278,315.188z"/>
	<circle cx="-320.027" cy="285.297" r="3.772"/>
	<circle cx="-309.249" cy="287.992" r="3.772"/>
	<circle cx="-309.92" cy="277.147" r="3.772"/>
	<circle cx="-300.358" cy="281.323" r="3.772"/>
	<circle cx="-297.596" cy="290.755" r="3.772"/>
	<circle cx="-294.767" cy="300.387" r="3.772"/>
	<circle cx="-284.936" cy="294.122" r="3.772"/>
	<circle cx="-284.195" cy="304.157" r="3.772"/>
	<circle cx="-277.052" cy="311.161" r="3.772"/>
	<circle cx="-274.628" cy="299.982" r="3.772"/>
	<circle cx="-266.412" cy="309.746" r="3.772"/>
	<circle cx="-256.039" cy="315.337" r="3.771"/>
	<path d="M-251.931,305.034c0,2.081-1.689,3.77-3.77,3.77c-2.084,0-3.773-1.688-3.773-3.77c0-2.083,1.689-3.773,3.773-3.773   C-253.62,301.261-251.931,302.951-251.931,305.034z"/>
	<circle cx="-264.998" cy="289.002" r="3.772"/>
	<circle cx="-281.903" cy="270.479" r="3.772"/>
	<circle cx="-303.054" cy="268.459" r="3.772"/>
	<circle cx="-292.275" cy="263.609" r="3.773"/>
	<circle cx="-249.976" cy="328.403" r="3.773"/>
	<circle cx="-249.976" cy="350.228" r="3.773"/>
	<circle cx="-264.998" cy="299.307" r="3.772"/>
	<circle cx="-275.303" cy="289.542" r="3.772"/>
	<circle cx="-279.276" cy="280.246" r="3.772"/>
	<circle cx="-292.275" cy="274.521" r="3.773"/>
	<circle cx="-288.775" cy="284.759" r="3.772"/>
</g>
</svg>