<svg xmlns="http://www.w3.org/2000/svg" xmlns:xlink="http://www.w3.org/1999/xlink" version="1.1" id="Your_Icon" x="0px" y="0px" width="100px" height="100px" viewBox="0 0 100 100" enable-background="new 0 0 100 100" xml:space="preserve">
<path id="_x3C_Path_x3E_" d="M74.506,31.617c0.031-1.474-1.407-5.415-2.6-6.45c-0.976-0.847-2.952-1.579-4.3-1.924  c-0.157-0.972-1.66-2.607-2.431-3.093c-1.442-0.91-3.685-0.639-4.218-0.639s-0.973-0.313-1.13-0.439  c-0.47-0.878-3.48-2.509-4.516-2.697c-0.031-0.502,0.376-1.819,0.564-2.917c0.855-0.271,1.045-3.052,0.376-2.927  c0.004-0.439-0.021-0.841-0.064-1.219c0.062-0.185,0.113-0.378,0.13-0.577c0.156-1.84-0.624-2.651-0.998-3.15  c-0.321-0.428-2.247-0.329-2.787-0.292c-0.068-0.001-0.139-0.005-0.205-0.005c-0.271-0.07-1.382-0.335-1.873-0.171  c-0.561,0.187-2.377,0.472-2.807,2.62c-0.283,1.413-0.109,2.186,0.205,2.609c0.003,0.136,0.008,0.269,0.015,0.394  c0,0-0.585,0.104-0.439,1.443c0.146,1.338,0.878,1.065,0.878,1.065s0.137,1.526-0.02,3.063c-1.474,0.188-2.823,1.098-3.795,2.07  c-0.972,0.972-1.188,1.265-1.188,1.265s-0.47,0.22-0.972,0.22c-1.349-0.627-3.61-0.011-4.802,0.898  c-1.192,0.91-1.537,1.914-1.851,3.388c-0.533,0.062-2.854,0.564-3.481,1.348c-0.627,0.784-1.317,1.066-2.164,2.509  c-0.752,1.097-1.317,2.446-1.317,3.7c-0.878,1.004-0.564,2.165,0.032,2.666c0.564,1.129,2.069,4.109,3.606,5.3  c1.537,1.192,5.237,3.889,6.367,4.642c0.721,1.725,2.32,2.164,3.355,2.415c-0.564,1.537-1.944,4.234-2.478,7.056  c-0.533,2.823,0.219,7.214,0.596,8.374c0.376,1.161,0.47,2.917,0.407,4.077c-0.501,0.658-0.47,1.819-0.439,2.353  c-0.031,0.502-1.882,3.513-1.944,3.763c-0.063,0.252-0.125,0.628-0.408,2.102c-0.313,1.349,0.283,12.043,0.283,12.607  c0,0.565-0.753,1.412-0.91,1.725c-0.157,0.314,0.157,1.13,0.063,1.506c-0.094,0.377-0.408,0.438-0.659,1.066  c-0.345,0.564-2.634,1.6-2.101,2.415c0.533,0.816,1.913,0.784,2.885,0.847s1.375,0.115,2.29-0.532  c0.752-0.533,0.784-2.604,0.972-3.168c0.188-0.565,0.407-1.443,0.627-2.29c-0.345-0.972-0.376-2.635-0.157-3.92  c0.22-1.286,3.293-7.213,4.077-9.221c0.784-2.007,0.282-3.073,0.094-4.015c-0.188-0.94,0.251-1.631,0.564-2.194  c0.063-0.44,0.094-1.224,0.596-1.883c1.38-1.567,1.756-3.512,1.976-4.422c0.062-0.878,1.003-2.571,1.505-3.669  c0.47-0.69,1.379-1.882,1.536-3.764c0.314,1.693,1.192,2.948,1.506,3.419c0.313,0.47,0.564,1.474,1.255,2.665  c-0.031,0.69-0.126,1.255,0.125,2.572c0.251,1.316,1.537,3.513,2.352,5.613c-0.25,1.882-0.658,4.768,0.283,6.492  c0.94,1.726,3.167,7.903,3.355,9.252s-0.596,2.289-0.502,3.293c0.095,1.003,0.703,1.66,0.721,2.038  c0.025,0.514-0.312,0.722-0.376,1.13c-0.062,0.407,0.283,0.878,0.533,1.035c0.252,0.156,0.283,0.533,0.878,1.223  c0.879,0.69,2.979,0.658,3.607,0.407c0.628-0.25,1.411-0.438,1.411-1.411c-0.628-0.25-1.6-1.285-2.195-1.944  c0.031-0.439-0.377-0.847-0.627-1.286c0.031-0.407-0.063-0.689-0.188-1.442c-0.313-0.69-0.533-2.509-0.22-4.359  c0.377-1.537,0.941-8.562,0.658-11.196c-0.281-2.635-1.316-2.917-1.913-4.203c0.031-0.438-0.156-1.693-0.219-1.976  s-0.031-1.662,0.219-2.665c0.252-1.004,1.13-2.823,1.13-3.952c0.094-1.161,0.281-4.924,0.062-6.523  c-0.22-1.6-1.38-5.739-1.631-6.806c1.066,0.125,2.885-1.63,3.073-2.29c0.188-0.658,2.791-2.634,5.237-4.202  c2.384-1.568,3.952-5.081,4.359-6.21C75.07,33.687,75.039,32.119,74.506,31.617z M66.461,36.933  c-0.141,0.439-0.967,1.908-1.176,2.18s-2.237,2.195-2.383,2.383c-0.146,0.188-0.398,0.251-0.523,0.084  c-0.126-0.167-1.184-0.952-1.339-1.15c-0.146-0.188-2.09,1.087-2.09,1.087s-0.012-0.032-0.026-0.071  c-0.41,0.394-2.961,2.845-3.921,3.939c-1.008,1.149-3.085,5.667-3.169,5.875c-0.062,0.146-0.333,0.292-0.688-0.042  c-1.653-3.973-4.721-8.525-7.042-9.738c-0.011-0.027-0.003-0.056-0.006-0.083c-0.117-0.089-0.537-0.394-0.672-0.34  c-0.157,0.063-1.004-0.658-1.286-0.564c-0.282,0.094-0.941,1.286-1.443,1.035c-0.501-0.251-1.349-1.129-1.693-1.474  c-0.345-0.345-1.819-1.913-2.29-2.352c-0.063-1.004-0.565-2.854-0.878-3.356c-0.314-0.501-0.188-1.066-0.345-1.537  c1.007,0.219,3.189-0.162,3.952-2.258c0.847,1.066,0.847,1.442,1.16,1.944c0.314,0.502,2.572,2.007,2.729,2.541  c0.156,0.533,0.182,1.893,0.307,2.928c0.119,0.977,1.073,2.624,1.073,2.78c0,0.062-0.097,0.188-0.205,0.312  c0.879,0.625,4.338,2.959,6.909,2.887c1.569-0.044,5.343-1.364,7.224-2.995c0.042,0.082,0.124,0.188,0.2,0.276  c-0.058-0.148-0.122-0.316-0.162-0.417c0.769-2.09,0.769-3.345,1.191-5.771c3.492-0.272,4.015-3.638,4.203-4.328  c0.48,0.48,0.647,1.01,1.902,1.615c0.848,0.408,1.861-0.11,2.07-0.068c0.21,0.042,0.376,0.251,0.397,0.418  C67.795,33.154,66.608,36.264,66.461,36.933z"/>
</svg>