<?xml version="1.0" encoding="UTF-8" standalone="no"?>
<!-- Generator: Adobe Illustrator 14.0.0, SVG Export Plug-In . SVG Version: 6.00 Build 43363)  -->

<svg
   xmlns:dc="http://purl.org/dc/elements/1.1/"
   xmlns:cc="http://creativecommons.org/ns#"
   xmlns:rdf="http://www.w3.org/1999/02/22-rdf-syntax-ns#"
   xmlns:svg="http://www.w3.org/2000/svg"
   xmlns="http://www.w3.org/2000/svg"
   xmlns:sodipodi="http://sodipodi.sourceforge.net/DTD/sodipodi-0.dtd"
   xmlns:inkscape="http://www.inkscape.org/namespaces/inkscape"
   version="1.0"
   id="Layer_1"
   x="0px"
   y="0px"
   width="100"
   height="100"
   viewBox="0 0 100 99.999999"
   enable-background="new 0 0 100 60.214"
   xml:space="preserve"
   inkscape:version="0.48.5 r10040"
   sodipodi:docname="icon_476.svg"><metadata
     id="metadata33"><rdf:RDF><cc:Work
         rdf:about=""><dc:format>image/svg+xml</dc:format><dc:type
           rdf:resource="http://purl.org/dc/dcmitype/StillImage" /></cc:Work></rdf:RDF></metadata><defs
     id="defs31" /><sodipodi:namedview
     pagecolor="#ffffff"
     bordercolor="#666666"
     borderopacity="1"
     objecttolerance="10"
     gridtolerance="10"
     guidetolerance="10"
     inkscape:pageopacity="0"
     inkscape:pageshadow="2"
     inkscape:window-width="640"
     inkscape:window-height="480"
     id="namedview29"
     showgrid="false"
     inkscape:zoom="1.9596771"
     inkscape:cx="9.2778187"
     inkscape:cy="53.060412"
     inkscape:window-x="0"
     inkscape:window-y="0"
     inkscape:window-maximized="0"
     inkscape:current-layer="Layer_1" /><polygon
     points="20.222,41.375 18.054,40.151 18.054,40.151 24.19,29.31 29.618,5.521 29.622,5.523 31.587,7.985 26.534,30.228 "
     id="polygon3"
     transform="translate(0,17.785999)" /><path
     d="m 19.814,35.750999 c -1.865,-0.792 -4.051,-2.646 -4.031,-5.817 l 0,0 c -0.04,-2.895 1.436,-4.816 3.069,-5.683 l 0,0 c 1.621,-0.892 4.108,-0.983 4.108,-0.983 l 0,0 c 0.256,0 0.435,0.01 0.51,0.016 l 0,0 7.773,0.008 0.343,2.479 h -8.255 l -0.053,-0.002 c 0,0.002 -0.092,-0.013 -0.318,-0.013 l 0,0 c -0.603,-0.005 -1.907,0.106 -2.896,0.669 l 0,0 c -0.973,0.591 -1.753,1.379 -1.791,3.509 l 0,0 c 0.021,1.498 0.639,2.298 1.558,2.982 l 0,0 c 0.919,0.659 2.162,1.019 2.986,1.172 l 0,0 c 0.549,0.103 0.871,0.12 0.875,0.12 l 0,0 -0.151,2.485 c -0.08,-0.007 -1.836,-0.102 -3.727,-0.942 l 0,0 z"
     id="path5"
     inkscape:connector-curvature="0" /><path
     d="m 26.966,36.395999 1.772,-1.749 24.445,27.342 25.476,-4.099 -17.02,-24.651 H 28.681 v -2.487 h 34.265 l 20.007,28.976 -30.643,4.925 -25.344,-28.257 0,0 z m 1.715,-3.157 v 0.002 -0.002 l 0,0 z"
     id="path7"
     inkscape:connector-curvature="0" /><polygon
     points="51.558,45.17 51.558,45.17 64.58,2.482 66.962,3.212 53.939,45.898 "
     id="polygon9"
     transform="translate(0,17.785999)" /><path
     d="m 0,58.810999 c 0.001,-10.601 8.592,-19.191 19.192,-19.192 l 0,0 c 10.599,10e-4 19.188,8.592 19.191,19.192 l 0,0 c -0.002,10.596 -8.592,19.187 -19.191,19.189 l 0,0 c -10.6,-0.003 -19.191,-8.593 -19.192,-19.189 l 0,0 z m 2.49,0 c 0.017,9.221 7.479,16.682 16.702,16.701 l 0,0 c 9.221,-0.02 16.683,-7.48 16.697,-16.701 l 0,0 c -0.015,-9.225 -7.477,-16.686 -16.697,-16.701 l 0,0 c -9.224,0.015 -16.686,7.476 -16.702,16.701 l 0,0 z"
     id="path11"
     inkscape:connector-curvature="0" /><circle
     cx="19.191999"
     cy="41.025002"
     r="2.697"
     id="circle13"
     sodipodi:cx="19.191999"
     sodipodi:cy="41.025002"
     sodipodi:rx="2.697"
     sodipodi:ry="2.697"
     transform="translate(0,17.785999)" /><path
     d="m 61.617,58.810999 c 0.002,-10.599 8.595,-19.191 19.192,-19.194 l 0,0 c 10.598,0.003 19.188,8.596 19.19,19.194 l 0,0 c -0.002,10.596 -8.593,19.187 -19.19,19.189 l 0,0 c -10.597,-0.003 -19.19,-8.593 -19.192,-19.189 l 0,0 z m 2.491,0 c 0.016,9.223 7.478,16.684 16.701,16.699 l 0,0 c 9.22,-0.016 16.686,-7.477 16.701,-16.699 l 0,0 c -0.016,-9.226 -7.481,-16.688 -16.701,-16.703 l 0,0 c -9.223,0.015 -16.685,7.477 -16.701,16.703 l 0,0 z"
     id="path15"
     inkscape:connector-curvature="0" /><circle
     cx="80.809998"
     cy="41.025002"
     r="2.697"
     id="circle17"
     sodipodi:cx="80.809998"
     sodipodi:cy="41.025002"
     sodipodi:rx="2.697"
     sodipodi:ry="2.697"
     transform="translate(0,17.785999)" /><circle
     cx="52.750999"
     cy="44.707001"
     r="2.698"
     id="circle19"
     sodipodi:cx="52.750999"
     sodipodi:cy="44.707001"
     sodipodi:rx="2.698"
     sodipodi:ry="2.698"
     transform="translate(0,17.785999)" /><polygon
     points="49.879,36.701 49.879,36.701 51.713,36.352 54.93,53.26 53.094,53.608 "
     id="polygon21"
     transform="translate(0,17.785999)" /><polygon
     points="48.41,37.195 48.41,37.195 48.41,35.325 53.076,35.325 53.076,37.195 "
     id="polygon23"
     transform="translate(0,17.785999)" /><polygon
     points="51.522,53.807 51.522,53.807 51.522,51.94 56.188,51.94 56.188,53.807 "
     id="polygon25"
     transform="translate(0,17.785999)" /><path
     d="m 59.167,18.926999 c 0,0 -1.619,0.324 -1.619,1.294 0,0.97 0.967,1.188 1.458,1.133 0.226,-0.025 5.824,-0.163 8.412,0.485 2.591,0.647 3.885,1.134 4.694,-0.16 0.809,-1.296 0.971,-4.046 -2.427,-3.887 -3.401,0.164 -10.518,1.135 -10.518,1.135 z"
     id="path27"
     inkscape:connector-curvature="0" /></svg>