<svg xmlns="http://www.w3.org/2000/svg" xmlns:xlink="http://www.w3.org/1999/xlink" version="1.1" id="Your_Icon" x="0px" y="0px" width="100px" height="100px" viewBox="0 0 100 100" enable-background="new 0 0 100 100" xml:space="preserve">
<path fill="#000000" d="M42.53,94.22c-1.741,0-3.971-1.104-4.885-1.603c-0.195,0.007-0.45,0.013-0.758,0.013c0,0,0,0,0,0  c-1.635,0-4.957-0.158-8.837-1.215c-5.004-1.367-6.395-8.269-6.772-11.474c-0.08,0.003-0.159,0.003-0.238,0.003  c-5.409,0-10.211-4.149-12.12-6.94c-2.547-3.721-3.995-8.497-4.303-14.192c-0.304-5.627,1.899-9.199,2.568-10.147  c4.596-14.42,18.314-15.21,21.13-15.216c2.953-1.966,6.765-3.002,11.063-3.002c2.498,0,4.53,0.345,5.501,0.545  c1.345-0.739,2.84-1.113,4.451-1.113c2.692,0,5.041,1.058,6.142,1.649c0.922-0.295,1.917-0.444,2.967-0.444  c3.773,0,7.346,1.915,8.588,2.657c0.46-0.038,0.918-0.056,1.37-0.056c8.795,0,13.783,6.786,14.983,8.644  c5.799,2.512,7.383,10.194,7.691,12.089c4.358,5.805,2.573,12.577,1.832,14.736c0.783,1.613,0.649,2.888,0.372,3.711  c-0.357,1.059-1.068,1.789-1.701,2.261c0.785,3.243-0.454,5.648-2.552,8.174c-1.255,1.512-3.106,2.279-5.497,2.279  c-1.908,0-4.189-0.488-6.976-1.49c-0.481-0.174-1.069-0.263-1.747-0.263c-2.308,0-5.227,1.007-7.573,1.815  c-1.464,0.505-2.726,0.94-3.718,1.105c-1.285,0.213-6.071,2.091-10.292,3.745C46.462,93.141,43.603,94.22,42.53,94.22z   M37.991,89.684c0.26,0,0.517,0.068,0.741,0.2c0.927,0.541,2.76,1.403,3.768,1.417c0.957-0.114,5.978-2.085,9.653-3.524  c5.613-2.201,9.401-3.662,10.877-3.907c0.753-0.124,1.964-0.544,3.247-0.984c2.552-0.882,5.728-1.978,8.524-1.978  c1.015,0,1.935,0.147,2.736,0.435c2.463,0.886,4.422,1.319,5.986,1.319c1.505,0,2.57-0.401,3.254-1.226  c2.144-2.578,2.556-4.152,1.698-6.48c-0.274-0.744,0.098-1.572,0.836-1.862c0.255-0.105,0.993-0.533,1.203-1.173  c0.16-0.495,0.005-1.133-0.457-1.896c-0.246-0.402-0.281-0.898-0.097-1.332c0.029-0.069,2.981-7.239-1.42-12.776  c-0.169-0.21-0.274-0.464-0.308-0.731c-0.009-0.082-1.108-8.384-6.348-10.314c-0.321-0.119-0.594-0.348-0.763-0.646  c-0.042-0.074-4.479-7.622-12.729-7.622c-0.513,0-1.04,0.029-1.564,0.086c-0.339,0.038-0.682-0.046-0.966-0.235  C65.829,36.428,62.121,34,58.438,34c-0.933,0-1.789,0.16-2.544,0.476c-0.444,0.188-0.958,0.142-1.362-0.125  c-0.021-0.013-2.436-1.556-5.202-1.556c-1.263,0-2.414,0.327-3.418,0.973c-0.342,0.22-0.762,0.287-1.155,0.184  c-0.021-0.005-2.327-0.59-5.379-0.59c-2.71,0-6.604,0.475-9.772,2.738c-0.268,0.191-0.594,0.285-0.923,0.27  c-0.015-0.001-0.133-0.006-0.333-0.006c-2.391,0-14.518,0.646-18.453,13.401c-0.056,0.178-0.144,0.343-0.26,0.488  c-0.092,0.118-2.395,3.099-2.108,8.401c0.278,5.153,1.557,9.428,3.799,12.705c1.609,2.354,5.688,5.669,9.712,5.669  c0.439,0,0.87-0.04,1.284-0.121c0.414-0.079,0.844,0.026,1.178,0.286c0.333,0.262,0.535,0.654,0.555,1.077  c0.126,2.545,1.226,9.365,4.761,10.328c5.059,1.382,9.054,1.09,9.067,1.088C37.919,89.684,37.955,89.684,37.991,89.684z"/>
<path fill="#000000" d="M74.884,57.651c-0.133,0-0.261-0.052-0.357-0.155c-1.246-1.352-1.163-3.472-1.048-6.407  c0.02-0.475,0.039-0.975,0.056-1.499c0.024-0.851-0.212-1.518-0.703-1.989c-1.026-0.983-2.861-2.492-2.881-2.491  c-0.013,0-0.024,0.001-0.035,0.001c-3.634,0-7.396,0.885-7.915,1.627c-0.548,0.781-0.274,1.603-0.271,1.612  c0.091,0.252-0.039,0.53-0.292,0.621c-0.254,0.092-0.53-0.039-0.621-0.291c-0.02-0.053-0.454-1.298,0.388-2.499  c0.949-1.352,5.452-2.039,8.694-2.042c0.244-0.016,2.311,1.523,3.602,2.756c0.702,0.668,1.04,1.584,1.007,2.724  c-0.017,0.525-0.036,1.029-0.055,1.507c-0.106,2.702-0.185,4.654,0.789,5.71c0.183,0.197,0.17,0.507-0.026,0.688  C75.12,57.611,75.001,57.651,74.884,57.651z"/>
<path fill="#000000" d="M42.564,81.104c-2.125,0-2.971-1.177-3.721-2.22c-0.391-0.543-0.76-1.055-1.298-1.447  c-1.089-0.79-4.351,1.021-6.149,2.349c-0.216,0.159-0.521,0.115-0.68-0.103c-0.159-0.215-0.113-0.521,0.103-0.68  c0.535-0.394,5.284-3.816,7.298-2.354c0.665,0.484,1.096,1.086,1.515,1.666c0.764,1.063,1.366,1.898,3.198,1.806  c3.368-0.171,7.761-1.47,9.054-4.562c0.558-1.328,0.764-1.981,0.876-2.335c0.175-0.552,0.222-0.622,0.688-1.055  c0.094-0.087,0.211-0.196,0.358-0.337c0.193-0.186,0.501-0.179,0.687,0.016c0.186,0.192,0.178,0.502-0.015,0.686  c-0.152,0.146-0.271,0.258-0.368,0.348c-0.312,0.289-0.312,0.289-0.423,0.638c-0.116,0.366-0.333,1.046-0.905,2.414  c-1.468,3.505-6.076,4.965-9.902,5.16C42.771,81.098,42.666,81.104,42.564,81.104z"/>
<path fill="#000000" d="M54.71,78.456c-2.172,0-3.185-1.671-3.198-1.692c-0.136-0.233-0.058-0.533,0.175-0.667  c0.23-0.136,0.527-0.058,0.663,0.174c0.062,0.099,1.476,2.36,4.861,0.439c0.232-0.133,0.53-0.051,0.663,0.182  c0.132,0.236,0.052,0.531-0.184,0.664C56.526,78.217,55.534,78.456,54.71,78.456z"/>
<path fill="#000000" d="M60.429,85.713c-0.062,0-0.127-0.01-0.19-0.03c-2.092-0.638-3.09-2.596-3.13-2.679  c-0.16-0.321-0.032-0.708,0.287-0.868c0.322-0.16,0.71-0.03,0.869,0.287c0.016,0.026,0.81,1.549,2.353,2.021  c0.343,0.105,0.536,0.468,0.431,0.811C60.962,85.533,60.705,85.713,60.429,85.713z"/>
<path fill="#000000" d="M67.371,80.254c-0.241,0-0.451-0.179-0.481-0.424c-0.034-0.267,0.152-0.512,0.42-0.544  c2.913-0.375,4.3-2.301,4.315-2.321c0.153-0.219,0.457-0.271,0.676-0.117c0.219,0.151,0.275,0.454,0.122,0.672  c-0.065,0.096-1.632,2.298-4.989,2.73C67.412,80.253,67.392,80.254,67.371,80.254z"/>
<path fill="#000000" d="M89.391,74.507c-1.349,0-3.053-1.723-4.428-3.113l-0.377-0.38c-0.826-0.826-4.646-0.814-6.859-0.612  c-0.272,0.021-0.505-0.173-0.528-0.438c-0.025-0.268,0.171-0.506,0.439-0.529c0.632-0.059,6.22-0.523,7.636,0.893l0.379,0.382  c1.065,1.078,2.842,2.887,3.771,2.826c0.265-0.012,0.496,0.189,0.514,0.457c0.016,0.268-0.19,0.498-0.459,0.512  C89.448,74.507,89.419,74.507,89.391,74.507z"/>
<path fill="#000000" d="M75.763,78.457c-0.056,0-0.11-0.008-0.165-0.028c-0.252-0.093-0.382-0.371-0.291-0.622  c1.428-3.925,6.067-3.438,6.114-3.433c0.266,0.03,0.458,0.271,0.427,0.537c-0.031,0.268-0.267,0.459-0.538,0.428  c-0.167-0.019-3.928-0.395-5.089,2.799C76.147,78.336,75.963,78.457,75.763,78.457z"/>
<path fill="#000000" d="M82.122,70.291c-0.125,0-0.249-0.048-0.346-0.142c-2.453-2.455-0.796-4.422-0.779-4.441  c0.178-0.202,0.483-0.226,0.687-0.049c0.201,0.176,0.225,0.481,0.053,0.682c-0.115,0.138-1.032,1.358,0.729,3.12  c0.188,0.189,0.188,0.497,0,0.688C82.37,70.243,82.245,70.291,82.122,70.291z"/>
<path fill="#000000" d="M69.57,70.724c-0.067,0-0.135-0.015-0.201-0.044c-0.245-0.11-0.353-0.4-0.24-0.645  c1.263-2.758,0.022-5.225,0.011-5.251c-0.123-0.235-0.03-0.53,0.206-0.654c0.237-0.123,0.532-0.033,0.657,0.205  c0.06,0.116,1.478,2.901,0.011,6.105C69.931,70.619,69.755,70.724,69.57,70.724z"/>
<path fill="#000000" d="M19.9,61.46c-0.244,0-0.479-0.141-0.588-0.377c-1.812-3.924-1.148-5.848-0.987-6.213  c0.867-2.436,2.135-3.864,3.772-4.244c1.797-0.42,3.519,0.568,4.451,1.258c1.021-2.229,2.634-3.979,3.403-4.738  c-3.143-4.674-1.583-12.255-1.512-12.587c0.074-0.35,0.419-0.574,0.768-0.499c0.35,0.074,0.574,0.418,0.5,0.768  c-0.016,0.078-1.614,7.865,1.614,12.001c0.212,0.271,0.174,0.659-0.083,0.886c-0.026,0.023-2.702,2.398-3.816,5.449  c-0.075,0.207-0.251,0.361-0.465,0.411c-0.215,0.048-0.439-0.016-0.597-0.169c-0.02-0.019-2.055-1.971-3.973-1.519  c-1.183,0.277-2.141,1.436-2.849,3.441c-0.009,0.026-0.02,0.051-0.032,0.076c0,0.001-0.662,1.574,0.983,5.133  c0.149,0.324,0.008,0.71-0.317,0.858C20.083,61.438,19.991,61.46,19.9,61.46z"/>
<path fill="#000000" d="M43.475,68.495c-0.105,0-0.21-0.035-0.3-0.104c-1.946-1.524-1.437-7.315-1.373-7.972  c0.026-0.268,0.262-0.463,0.532-0.438c0.267,0.026,0.462,0.264,0.436,0.531c-0.223,2.271-0.147,6.209,1.005,7.112  c0.209,0.166,0.247,0.471,0.083,0.682C43.762,68.43,43.619,68.495,43.475,68.495z"/>
<path fill="#000000" d="M25.883,61.46c-0.066,0-0.109-0.001-0.123-0.001c-0.357-0.016-0.636-0.318-0.622-0.676  s0.316-0.635,0.672-0.621c0.041-0.001,3.14,0.077,4.433-2.231c0.01-0.019,0.02-0.034,0.031-0.051  c4.391-6.394,11.403-5.033,13.531-4.436c1.781-4.717,4.172-5.748,5.363-5.955c0.073-3.956,2.042-6.077,3.729-7.17  c-5.462-1.165-9.062-6.516-9.234-6.776c-0.197-0.299-0.116-0.7,0.182-0.898c0.298-0.197,0.7-0.116,0.898,0.182  c0.045,0.067,4.533,6.713,10.664,6.409c0.346-0.015,0.633,0.23,0.674,0.565c0.044,0.336-0.18,0.647-0.512,0.716  c-0.216,0.045-5.296,1.187-5.1,7.555c0.005,0.189-0.073,0.372-0.212,0.5c-0.142,0.127-0.332,0.188-0.519,0.162  c-0.018,0-2.882-0.196-4.92,5.727c-0.059,0.167-0.181,0.302-0.339,0.378c-0.161,0.072-0.343,0.08-0.507,0.016  c-0.324-0.123-7.998-2.952-12.612,3.736C29.815,61.311,26.567,61.46,25.883,61.46z"/>
<path fill="#000000" d="M32.322,66.675c-0.036,0-0.072-0.004-0.108-0.009c-0.354-0.06-0.591-0.396-0.531-0.748  c0.351-2.084,0.569-6.489-1.004-6.81c-0.35-0.072-0.577-0.414-0.505-0.765c0.071-0.352,0.414-0.577,0.764-0.506  c3.222,0.656,2.155,7.518,2.022,8.298C32.907,66.45,32.633,66.675,32.322,66.675z"/>
<path fill="#000000" d="M46.061,50.829c-0.299,0-0.568-0.208-0.633-0.51c-1.084-5.034-5.931-7.393-5.98-7.415  c-0.322-0.156-0.46-0.541-0.308-0.863c0.153-0.325,0.54-0.462,0.863-0.311c0.222,0.105,5.471,2.643,6.691,8.314  c0.075,0.35-0.148,0.695-0.498,0.77C46.152,50.823,46.106,50.829,46.061,50.829z"/>
<path fill="#000000" d="M23.173,51.715c-0.079,0-0.159-0.019-0.233-0.059c-0.236-0.13-0.322-0.425-0.194-0.66  c1.089-1.986-1.098-4.857-1.12-4.886c-0.165-0.213-0.125-0.518,0.088-0.682c0.212-0.165,0.518-0.125,0.681,0.087  c0.107,0.139,2.594,3.409,1.205,5.947C23.511,51.624,23.345,51.715,23.173,51.715z"/>
<path fill="#000000" d="M11.281,58.079c-0.19,0-0.371-0.111-0.449-0.297c-0.104-0.248,0.013-0.533,0.26-0.637  c4.275-1.797,7.294-0.479,7.42-0.421c0.245,0.108,0.354,0.397,0.244,0.642c-0.11,0.245-0.397,0.354-0.642,0.245  c-0.035-0.016-2.788-1.189-6.646,0.43C11.407,58.068,11.344,58.079,11.281,58.079z"/>
<path fill="#000000" d="M58.649,94.645c-0.033-0.16-0.145-0.294-0.298-0.354c-5.307-2.09-5.068-4.188-5.068-4.195  c0.03-0.138-0.004-0.281-0.09-0.392c-0.086-0.113-0.216-0.184-0.355-0.191c-0.018-0.001-0.438-0.027-1.08-0.027  c-2.25,0-5.146,0.288-6.172,1.651c-0.38,0.505-0.479,1.125-0.286,1.795c0.999,3.461,7.874,6.63,8.165,6.762  c0.065,0.03,0.135,0.045,0.202,0.045c0.126,0,0.251-0.049,0.344-0.143l4.509-4.51C58.634,94.971,58.684,94.804,58.649,94.645z"/>
<path fill="#000000" d="M76.771,79.859c-0.109-0.453-0.232-0.964-0.268-1.559c-0.091-1.552-1.681-1.583-2.956-1.607  c-1.007-0.023-2.148-0.046-2.744-0.637c-1.129-1.118-0.812-4.496-0.594-5.703c0.053-0.293-0.103-0.586-0.374-0.708  c-0.273-0.12-0.592-0.041-0.776,0.194c-0.598,0.768-1.881,1.042-3.367,1.358c-0.746,0.159-1.52,0.322-2.332,0.567  c-2.891,0.872-5.184,2.841-6.175,4.404c-0.753,1.189-0.527,2.569-0.309,3.901c0.122,0.751,0.248,1.528,0.211,2.288  c-0.012,0.225-0.101,0.39-0.288,0.534c-0.878,0.676-3.455,0.577-5.545,0.134c-2.281-0.486-4.226,0.886-4.306,0.942  c-0.03,0.022-0.058,0.046-0.083,0.07c-3.273,3.284-4.897,3.214-5.259,3.142c-0.116-0.094-0.26-0.153-0.421-0.153  c-0.372,0-0.674,0.304-0.674,0.676c0,0.313,0.217,0.576,0.508,0.648c0.162,0.074,0.436,0.157,0.838,0.157  c1.048,0,2.949-0.58,5.882-3.51c0.251-0.164,1.684-1.036,3.244-0.705c0.8,0.17,4.882,0.953,6.608-0.373  c0.485-0.375,0.76-0.895,0.791-1.499c0.044-0.896-0.094-1.741-0.227-2.56c-0.195-1.194-0.364-2.225,0.126-3  c0.833-1.316,2.895-3.086,5.453-3.855c0.761-0.231,1.505-0.389,2.228-0.544c1.038-0.219,1.993-0.424,2.781-0.794  c-0.125,1.63-0.073,4.096,1.147,5.308c0.963,0.954,2.442,0.985,3.63,1.012c1.309,0.026,1.672,0.108,1.689,0.389  c0.04,0.709,0.185,1.306,0.301,1.786c0.229,0.948,0.176,0.98,0.017,1.073c-0.31,0.182-0.412,0.579-0.23,0.889  c0.181,0.308,0.579,0.412,0.886,0.231C77.226,81.743,76.984,80.742,76.771,79.859z"/>
<g>
	<path fill="#000000" d="M99.87,19.536c-0.148-0.146-0.382-0.168-0.555-0.053l-12.562,8.404c-0.161,0.108-0.233,0.309-0.178,0.494   c0.057,0.186,0.228,0.312,0.422,0.312h3.424l-6.022,8.248c-0.126,0.171-0.109,0.409,0.036,0.563   c0.087,0.09,0.202,0.137,0.319,0.137c0.085,0,0.167-0.023,0.242-0.072l13.258-8.676c0.163-0.106,0.236-0.308,0.181-0.495   c-0.056-0.187-0.228-0.315-0.423-0.315h-3.278l5.196-7.995C100.043,19.915,100.018,19.683,99.87,19.536z"/>
	<path fill="#000000" d="M60.968,0.075L48.405,8.478c-0.162,0.107-0.234,0.309-0.177,0.495c0.057,0.186,0.227,0.312,0.422,0.312   h3.424l-6.024,8.247c-0.125,0.172-0.11,0.409,0.038,0.563c0.085,0.09,0.201,0.137,0.318,0.137c0.083,0,0.167-0.023,0.242-0.072   l13.258-8.676c0.162-0.106,0.235-0.308,0.18-0.494c-0.056-0.187-0.227-0.315-0.421-0.315h-3.28l5.196-7.995   c0.115-0.175,0.091-0.406-0.06-0.553C61.373-0.021,61.141-0.042,60.968,0.075z"/>
	<path fill="#000000" d="M15.332,22.762L2.769,31.166c-0.161,0.107-0.233,0.308-0.177,0.494c0.057,0.186,0.228,0.313,0.422,0.313   h3.423L0.416,40.22c-0.126,0.171-0.11,0.408,0.037,0.562c0.085,0.09,0.202,0.138,0.319,0.138c0.083,0,0.167-0.025,0.241-0.073   l13.258-8.676c0.163-0.106,0.237-0.308,0.181-0.494c-0.056-0.187-0.228-0.314-0.422-0.314h-3.28l5.196-7.995   c0.115-0.176,0.089-0.407-0.059-0.554C15.737,22.667,15.506,22.645,15.332,22.762z"/>
</g>
<path fill="#000000" d="M57,53.5c-0.276,0-0.5-0.224-0.5-0.5c0-1.379-0.436-2.455-1.294-3.2c-1.997-1.732-5.628-1.237-5.666-1.232  c-0.276,0.036-0.526-0.152-0.565-0.425s0.151-0.526,0.425-0.565c0.167-0.024,4.125-0.561,6.462,1.467  C56.948,49.988,57.5,51.318,57.5,53C57.5,53.276,57.276,53.5,57,53.5z"/>
<path fill="#000000" d="M21.999,79c-0.502,0-0.935-0.378-0.992-0.889c-0.062-0.548,0.333-1.043,0.881-1.105  c0.083-0.009,8.362-1.021,10.15-7.28c0.145-0.508,0.665-0.811,1.177-0.702c0.343,0.074,8.502,1.769,14.025-4.674  C54.315,56.095,70.322,56,71,56c1.07,0,1.989,0.068,2.877,0.134c2.438,0.182,4.547,0.337,8.807-1.082  c4.215-1.405,5.209-2.242,5.389-2.427C88.221,52.259,88.58,52,89,52c0.553,0,1,0.447,1,1c0,0.801-0.76,1.974-6.684,3.948  c-4.641,1.546-7.045,1.369-9.587,1.181C72.877,58.065,71.996,58,71,58c-0.641,0-15.758,0.087-22.241,7.65  c-5.255,6.131-12.549,5.809-15.081,5.476c-2.585,6.792-11.189,7.826-11.568,7.868C22.073,78.998,22.036,79,21.999,79z"/>
<path fill="#000000" d="M59,65.5c-0.275,0-0.499-0.224-0.5-0.499c0-0.037-0.041-3.654-2.658-4.526  c-0.262-0.088-0.403-0.371-0.316-0.633c0.088-0.262,0.373-0.402,0.633-0.316C59.462,60.627,59.5,64.822,59.5,65  C59.5,65.275,59.276,65.499,59,65.5L59,65.5z"/>
<path fill="#000000" d="M74.469,51.627l-0.036-1c0.131-0.005,3.218-0.159,4.093-2.786l0.949,0.316  C78.377,51.449,74.628,51.621,74.469,51.627z"/>
</svg>